<?xml version="1.0" encoding="utf-8"?>
<!-- Generator: Adobe Illustrator 27.3.1, SVG Export Plug-In . SVG Version: 6.00 Build 0)  -->
<svg version="1.1" id="レイヤー_1" xmlns="http://www.w3.org/2000/svg" xmlns:xlink="http://www.w3.org/1999/xlink" x="0px"
	 y="0px" viewBox="0 0 19 19" style="enable-background:new 0 0 19 19;" xml:space="preserve">
<style type="text/css">
	.st0{fill:#999999;}
</style>
<path id="footer-icon-facebook" class="st0" d="M9.5,0C4.2,0,0,4.3,0,9.6c0,4.7,3.4,8.6,8,9.4v-6.7H5.6V9.6H8V7.5
	C7.8,5.6,9.1,4,11,3.7c0.2,0,0.4,0,0.6,0c0.7,0,1.4,0.1,2.1,0.2v2.4h-1.2c-0.8-0.1-1.4,0.4-1.5,1.2c0,0.1,0,0.2,0,0.3v1.8h2.6
	l-0.4,2.8H11V19c5.2-0.9,8.7-5.8,7.9-11C18.1,3.4,14.2,0,9.5,0L9.5,0z"/>
</svg>
