<?xml version="1.0" encoding="utf-8"?>
<!-- Generator: Adobe Illustrator 27.3.1, SVG Export Plug-In . SVG Version: 6.00 Build 0)  -->
<svg version="1.1" id="レイヤー_1" xmlns="http://www.w3.org/2000/svg" xmlns:xlink="http://www.w3.org/1999/xlink" x="0px"
	 y="0px" viewBox="0 0 18 18" style="enable-background:new 0 0 18 18;" xml:space="preserve">
<style type="text/css">
	.st0{fill:#999999;}
</style>
<path id="footer-icon-instagram" class="st0" d="M5.1,18C2.3,18,0,15.7,0,12.9V5.1C0,2.3,2.3,0,5.1,0h7.8C15.7,0,18,2.3,18,5.1v7.8
	c0,2.8-2.3,5.1-5.1,5.1H5.1z M1.5,5.1v7.8c0,2,1.6,3.6,3.6,3.6h7.8c2,0,3.6-1.6,3.6-3.6V5.1c0-2-1.6-3.6-3.6-3.6H5.1
	C3.1,1.5,1.5,3.1,1.5,5.1z M4.4,9c0-2.5,2.1-4.6,4.6-4.6c2.5,0,4.6,2.1,4.6,4.6c0,2.5-2.1,4.6-4.6,4.6C6.4,13.6,4.4,11.5,4.4,9
	L4.4,9z M5.9,9C5.9,10.7,7.3,12,9,12c1.7,0,3.1-1.4,3.1-3.1c0-1.7-1.4-3.1-3.1-3.1C7.3,5.8,5.9,7.2,5.9,9z M12.8,4.1
	c0-0.6,0.5-1,1-1s1,0.5,1,1s-0.5,1-1,1c0,0,0,0,0,0C13.3,5.1,12.8,4.7,12.8,4.1C12.8,4.1,12.8,4.1,12.8,4.1L12.8,4.1z"/>
</svg>
